<svg width="23" height="24" viewBox="0 0 23 24" fill="none" xmlns="http://www.w3.org/2000/svg">
<path d="M5.1925 18.0575L13.0775 13.8275L17.3075 5.9425L9.4225 10.1725L5.1925 18.0575ZM11.25 13.25C10.8958 13.25 10.5992 13.13 10.36 12.89C10.1208 12.65 10.0008 12.3533 10 12C10 11.6458 10.12 11.3492 10.36 11.11C10.6 10.8708 10.8967 10.7508 11.25 10.75C11.6042 10.75 11.9013 10.87 12.1413 11.11C12.3813 11.35 12.5008 11.6467 12.5 12C12.5 12.3542 12.38 12.6513 12.14 12.8913C11.9 13.1313 11.6033 13.2508 11.25 13.25ZM11.2537 23.25C9.69875 23.25 8.23625 22.955 6.86625 22.365C5.49708 21.7742 4.30583 20.9725 3.2925 19.96C2.27917 18.9483 1.47708 17.7583 0.88625 16.39C0.295417 15.0217 0 13.5596 0 12.0037C0 10.4488 0.295 8.98625 0.885 7.61625C1.47583 6.24708 2.2775 5.05583 3.29 4.0425C4.30167 3.02917 5.49167 2.22708 6.86 1.63625C8.22833 1.04542 9.69042 0.75 11.2463 0.75C12.8012 0.75 14.2638 1.045 15.6337 1.635C17.0029 2.22583 18.1942 3.0275 19.2075 4.04C20.2208 5.05167 21.0229 6.24167 21.6138 7.61C22.2046 8.97833 22.5 10.4404 22.5 11.9963C22.5 13.5512 22.205 15.0138 21.615 16.3837C21.0242 17.7529 20.2225 18.9442 19.21 19.9575C18.1983 20.9708 17.0083 21.7729 15.64 22.3638C14.2717 22.9546 12.8096 23.25 11.2537 23.25ZM11.25 22C14.0417 22 16.4062 21.0312 18.3438 19.0938C20.2812 17.1562 21.25 14.7917 21.25 12C21.25 9.20833 20.2812 6.84375 18.3438 4.90625C16.4062 2.96875 14.0417 2 11.25 2C8.45833 2 6.09375 2.96875 4.15625 4.90625C2.21875 6.84375 1.25 9.20833 1.25 12C1.25 14.7917 2.21875 17.1562 4.15625 19.0938C6.09375 21.0312 8.45833 22 11.25 22Z" fill="#787486"/>
</svg>
