<svg width="29" height="30" viewBox="0 0 29 30" fill="none" xmlns="http://www.w3.org/2000/svg">
<path d="M4.83331 22.25C4.83331 20.9681 5.34254 19.7387 6.24896 18.8323C7.15539 17.9259 8.38477 17.4167 9.66665 17.4167H19.3333C20.6152 17.4167 21.8446 17.9259 22.751 18.8323C23.6574 19.7387 24.1666 20.9681 24.1666 22.25C24.1666 22.8909 23.912 23.5056 23.4588 23.9588C23.0056 24.4121 22.3909 24.6667 21.75 24.6667H7.24998C6.60904 24.6667 5.99435 24.4121 5.54114 23.9588C5.08793 23.5056 4.83331 22.8909 4.83331 22.25Z" stroke="#787486" stroke-width="1.66667" stroke-linejoin="round"/>
<path d="M14.5 12.5833C16.502 12.5833 18.125 10.9604 18.125 8.95833C18.125 6.9563 16.502 5.33333 14.5 5.33333C12.498 5.33333 10.875 6.9563 10.875 8.95833C10.875 10.9604 12.498 12.5833 14.5 12.5833Z" stroke="#787486" stroke-width="1.66667"/>
</svg>
